<svg viewBox="0 0 24 24" fill="none" xmlns="http://www.w3.org/2000/svg"><path d="M0 4C0 1.79086 1.79086 0 4 0H20C22.2091 0 24 1.79086 24 4V20C24 22.2091 22.2091 24 20 24H4C1.79086 24 0 22.2091 0 20V4Z" fill="#F23030"></path><rect x="5.5" y="5.5" width="4" height="6" stroke="white"></rect><rect x="14.5" y="12.5" width="4" height="6" stroke="white"></rect><path d="M12 7.00014L11.6464 6.64658L11.2929 7.00014L11.6464 7.35369L12 7.00014ZM17 7H17.5V6.49999L17 6.5L17 7ZM13.9091 5.79813L14.2627 5.44458L13.5556 4.73747L13.202 5.09103L13.9091 5.79813ZM13.202 8.90924L13.5556 9.2628L14.2627 8.55569L13.9091 8.20214L13.202 8.90924ZM12 7.50014L17 7.5L17 6.5L12 6.50014L12 7.50014ZM16.5 7V11H17.5V7H16.5ZM12.3536 7.35369L13.9091 5.79813L13.202 5.09103L11.6464 6.64658L12.3536 7.35369ZM11.6464 7.35369L13.202 8.90924L13.9091 8.20214L12.3536 6.64658L11.6464 7.35369Z" fill="white"></path><path d="M12 17L12.3536 17.3536L12.7071 17L12.3536 16.6464L12 17ZM7 17L6.5 17L6.49999 17.5H7V17ZM10.0909 18.202L9.73734 18.5556L10.4444 19.2627L10.798 18.9091L10.0909 18.202ZM10.798 15.0909L10.4444 14.7373L9.73734 15.4444L10.0909 15.798L10.798 15.0909ZM12 16.5H7V17.5H12V16.5ZM7.5 17L7.50007 13L6.50007 13L6.5 17L7.5 17ZM11.6464 16.6464L10.0909 18.202L10.798 18.9091L12.3536 17.3536L11.6464 16.6464ZM12.3536 16.6464L10.798 15.0909L10.0909 15.798L11.6464 17.3536L12.3536 16.6464Z" fill="white"></path></svg>
