<svg viewBox="0 0 24 24" xmlns="http://www.w3.org/2000/svg"><path d="M0 4C0 1.79086 1.79086 0 4 0H20C22.2091 0 24 1.79086 24 4V20C24 22.2091 22.2091 24 20 24H4C1.79086 24 0 22.2091 0 20V4Z" fill="#FF8000"></path><path d="M9.31107 11.5882V7.39216H11.884C12.2636 7.39216 12.6292 7.4183 12.9807 7.47059C13.3322 7.52288 13.6415 7.62745 13.9086 7.78431C14.1757 7.9281 14.3866 8.13725 14.5413 8.41176C14.71 8.68627 14.7944 9.04575 14.7944 9.4902C14.7944 9.93464 14.71 10.2941 14.5413 10.5686C14.3866 10.8431 14.1757 11.0588 13.9086 11.2157C13.6415 11.3595 13.3322 11.4575 12.9807 11.5098C12.6292 11.5621 12.2636 11.5882 11.884 11.5882H9.31107ZM6 5V19H9.31107V13.9804H12.7909C13.7329 13.9804 14.5343 13.8562 15.1951 13.6078C15.8559 13.3464 16.3902 13.0065 16.7979 12.5882C17.2197 12.1699 17.522 11.6928 17.7047 11.1569C17.9016 10.6078 18 10.0523 18 9.4902C18 8.91503 17.9016 8.35948 17.7047 7.82353C17.522 7.28758 17.2197 6.81046 16.7979 6.39216C16.3902 5.97386 15.8559 5.64052 15.1951 5.39216C14.5343 5.13072 13.7329 5 12.7909 5H6Z" fill="white"></path></svg>
