<svg viewBox="0 0 24 24" fill="none" xmlns="http://www.w3.org/2000/svg"><path d="M0 4C0 1.79086 1.79086 0 4 0H20C22.2091 0 24 1.79086 24 4V20C24 22.2091 22.2091 24 20 24H4C1.79086 24 0 22.2091 0 20V4Z" fill="#7961F2"></path><path fill-rule="evenodd" clip-rule="evenodd" fill="#ffff" d="M6.85831 18.8325C8.32448 19.3557 9.94657 18.6121 10.4813 17.1717L11.9999 13.0811L13.5185 17.1717C14.0533 18.6121 15.6754 19.3557 17.1416 18.8325C18.6077 18.3093 19.3628 16.7175 18.828 15.277C18.2933 13.8365 16.6712 13.0929 15.205 13.6161C14.5251 13.8587 13.9981 14.3312 13.6817 14.9118L12.501 11.7314L15 5L14.4262 5.2889C14.0028 5.50205 13.6769 5.86442 13.514 6.30332L11.9999 10.3817L10.4859 6.30332C10.3229 5.86442 9.99709 5.50205 9.57372 5.2889L8.99988 5L11.4989 11.7314L10.3182 14.9118C10.0018 14.3312 9.4748 13.8587 8.79487 13.6161C7.3287 13.0929 5.70661 13.8365 5.17184 15.277C4.63707 16.7175 5.39213 18.3093 6.85831 18.8325ZM7.18109 17.963C8.15854 18.3118 9.23993 17.8161 9.59645 16.8558C9.95296 15.8955 9.44959 14.8342 8.47214 14.4854C7.49468 14.1366 6.41329 14.6324 6.05678 15.5927C5.70027 16.553 6.20364 17.6142 7.18109 17.963ZM16.8188 17.963C17.7963 17.6142 18.2996 16.553 17.9431 15.5927C17.5866 14.6324 16.5052 14.1366 15.5278 14.4854C14.5503 14.8342 14.0469 15.8955 14.4035 16.8558C14.76 17.8161 15.8414 18.3118 16.8188 17.963Z"></path></svg>
